<?xml version="1.0" encoding="UTF-8"?>
<svg id="Layer_1" data-name="Layer 1" xmlns="http://www.w3.org/2000/svg" viewBox="0 0 409.58 409.58">
  <defs>
    <style>
      .cls-1 {
        fill: #fff;
      }

      .cls-2 {
        fill: red;
      }
    </style>
  </defs>
  <circle class="cls-2" cx="204.79" cy="204.79" r="204.79"/>
  <g>
    <path class="cls-1" d="m189.25,171.62c0-21.34,0-42.69,0-64.03,0-3.6.51-7.05,2.48-10.18,3.46-5.52,8.64-7.86,14.86-7.15,6.34.72,10.76,4.35,12.99,10.53,1.05,2.91,1.48,5.82,1.47,8.91-.05,39.89-.02,79.77-.06,119.66,0,3.57-.02,7.21-.72,10.68-1.31,6.47-6.15,9.87-12.01,11.79-9.32,3.06-19.24-6.57-19.19-15.37.14-21.61.05-43.22.05-64.83.05,0,.09,0,.14,0Z"/>
    <path class="cls-1" d="m223.55,300.21c1.27,10.79-9.31,19.05-18.46,19.22-11.6.22-19.35-9.54-19.22-19.55.14-10.25,8.17-17.77,18.5-18.39,9.6-.58,20.7,8.3,19.17,18.72Z"/>
  </g>
</svg>