<?xml version="1.0" encoding="UTF-8"?>
<svg id="Layer_1" data-name="Layer 1" xmlns="http://www.w3.org/2000/svg" viewBox="0 0 409.57 409.57">
  <defs>
    <style>
      .cls-1 {
        fill: #fff;
      }

      .cls-2 {
        fill: #8cb368;
      }
    </style>
  </defs>
  <circle class="cls-2" cx="204.79" cy="204.79" r="204.79"/>
  <path class="cls-1" d="m319.89,135.48c.08,6.59-1.95,9.98-5.15,13.17-44.38,44.24-88.67,88.57-132.97,132.88-6.37,6.37-14.57,6.47-21.02.04-22.08-22.02-44.14-44.06-66.15-66.14-7.46-7.48-6.27-17.69,2.56-23.06,4.03-2.45,13.44-1.25,16.86,2.17,17.83,17.83,35.73,35.59,53.41,53.56,2.91,2.96,4.33,3.32,7.49.14,39.85-40.11,79.88-80.06,119.87-120.04,5.03-5.03,10.72-6.24,16.92-3.7,4.74,1.95,8.2,7.43,8.2,10.96Z"/>
</svg>